# xmcd
#
# Track frame offsets: 
#        150
#        11943
#        28080
#        51779
#        86754
#        110572
#        127942
#        156327
#        174718
#        193243
#
# Disc length: 2893 seconds
#
# Revision: 0
# Processed by: cddbd v1.5.2PL0 Copyright (c) Steve Scherf et al.
# Submitted via: ExactAudioCopy v1.0b4
#
DISCID=8a0b4b0a
DTITLE=Little Hook - Little Hook
DYEAR=2017
DGENRE=Blues
TTITLE0=Hillburner
TTITLE1=Drowning In My Own Tears
TTITLE2=Hooked
TTITLE3=Movin' On
TTITLE4=Weedpicker
TTITLE5=Tell Me Baby
TTITLE6=Mourir Debout
TTITLE7=Tomorrow Night
TTITLE8=Back At The Shack
TTITLE9=Sea
EXTD=
EXTT0=
EXTT1=
EXTT2=
EXTT3=
EXTT4=
EXTT5=
EXTT6=
EXTT7=
EXTT8=
EXTT9=
PLAYORDER=
